<svg height="480pt" viewBox="-88 0 480 480" width="480pt" xmlns="http://www.w3.org/2000/svg"><path d="m152 48.96875 96 96-96 96zm0 0" fill="#78b9eb"/><path d="m152 239.03125 96 96-96 96zm0 0" fill="#78b9eb"/><g fill="#1a6fb0"><path d="m152 40c-4.417969 0-8 3.582031-8 8v173.65625l-82.34375-82.34375c-3.140625-3.03125-8.128906-2.988281-11.214844.097656-3.085937 3.085938-3.128906 8.074219-.097656 11.214844l89.375 89.375-89.375 89.375c-3.03125 3.140625-2.988281 8.128906.097656 11.214844 3.085938 3.085937 8.074219 3.128906 11.214844.097656l82.34375-82.34375v173.65625c.035156 3.8125 2.753906 7.066406 6.5 7.78125 3.742188.714844 7.46875-1.308594 8.90625-4.835938l94.25-94.257812c3.121094-3.125 3.121094-8.1875 0-11.3125l-89.375-89.375 89.375-89.375c3.121094-3.125 3.121094-8.1875 0-11.3125l-94.25-94.257812c-1.203125-3.039063-4.136719-5.042969-7.40625-5.054688zm8 371.71875v-153.375l76.6875 76.6875zm0-190.0625v-153.375l76.6875 76.6875zm0 0"/><path d="m152 0c-83.910156.09375-151.90625 68.089844-152 152v176c0 83.949219 68.050781 152 152 152s152-68.050781 152-152v-176c-.09375-83.910156-68.089844-151.90625-152-152zm136 328c0 75.109375-60.890625 136-136 136s-136-60.890625-136-136v-176c0-75.109375 60.890625-136 136-136s136 60.890625 136 136zm0 0"/></g></svg>