<svg viewBox="-121 0 512 512.003" xmlns="http://www.w3.org/2000/svg"><path d="m80.171875 101.28125c17.71875 0 32.136719-14.414062 32.136719-32.128906 0-17.722656-14.417969-32.140625-32.136719-32.140625-17.722656 0-32.140625 14.417969-32.140625 32.140625 0 17.714844 14.417969 32.128906 32.140625 32.128906zm0-44.269531c6.691406 0 12.136719 5.445312 12.136719 12.140625 0 6.6875-5.445313 12.128906-12.136719 12.128906-6.695313 0-12.140625-5.441406-12.140625-12.128906 0-6.695313 5.445312-12.140625 12.140625-12.140625zm0 0"/><path d="m270.476562 77.21875c.296876-9.492188.003907-19.011719-.902343-28.433594-.078125-.816406-.171875-1.636718-.257813-2.457031-.074218-.726563-.144531-1.449219-.226562-2.175781-.179688-1.546875-.375-3.085938-.582032-4.605469-.15625-1.171875-.328124-2.332031-.503906-3.441406-.335937-2.210938-.644531-4.050781-.957031-5.710938-.851563-4.808593-1.890625-9.667969-3.085937-14.453125-.425782-1.714844-1.0625-3.367187-1.890626-4.902344-.570312-1.058593-1.226562-2.0625-1.949218-2.980468-.332032-.421875-.671875-.828125-1.023438-1.214844-.058594-.066406-.121094-.132812-.183594-.199219-.316406-.328125-.628906-.640625-.957031-.953125-.042969-.042968-.085937-.082031-.128906-.125-1.945313-1.792968-4.167969-3.183594-6.609375-4.132812-.5625-.226563-1.046875-.382813-1.378906-.488282-.046875-.015624-.097656-.03125-.144532-.046874-1.972656-.597657-4.019531-.898438-6.09375-.898438h-20.691406c-2.351562 0-4.707031.117188-7.003906.347656-.003906 0-.007812 0-.011719 0-.003906 0-.007812.003906-.007812.003906-.003907 0-.007813 0-.007813 0-.003906 0-.007812 0-.011718 0-35.996094 3.589844-63.136719 33.601563-63.136719 69.820313v146.96875h-38.769531v-88.789063c21.070312-12.046874 34.371093-34.613281 34.371093-59.199218 0-37.585938-30.578125-68.160156-68.160156-68.160156-37.585937 0-68.160156 30.574218-68.160156 68.160156 0 24.585937 13.296875 47.152344 34.371093 59.199218v89.242188c-.082031.011719-.164062.019531-.242187.03125-2.0625.328125-4.070313.8125-5.925781 1.414062-.007813.003907-.019532.007813-.027344.011719-.003906 0-.007812.003907-.011719.003907-.046875.015624-.09375.035156-.140625.050781-8.425781 2.75-15.726562 8.320312-20.5625 15.691406l-4.917968 7.457031c-6.824219 10.332032-11.320313 21.789063-13.367188 34.054688-.03125.1875-.042969.375-.0625.558594-.738281 4.628906-1.125 9.339843-1.125 14.015624v173.78125c0 26.101563 21.238281 47.339844 47.339844 47.339844h159.941406c26.105469 0 47.339844-21.238281 47.339844-47.339844v-174.199218c0-17.027344-4.882813-33.59375-14.117188-47.902344l-4.792968-7.429688c-4.261719-6.625-10.335938-11.730468-17.597657-14.820312v-80.125c.011719 0 .027344.003906.042969.003906.3125.023438.632812.039063.945312.050782l.652344.035156c.449219.027344.910156.042968 1.375.046875l1.601563.027343h.179687 20.691406c1.214844 0 2.410157-.101562 3.566407-.304687.464843-.082031.941406-.1875 1.453125-.308594.019531-.003906.046875-.007812.070312-.011719.015625-.003906.03125-.011718.046875-.015624.011719 0 .019531-.003907.03125-.007813.019531-.003906.039063-.007813.058594-.015625.050781-.011719.101563-.023438.152344-.039062.015625-.003907.027343-.007813.042969-.011719.898437-.238281 1.667968-.515625 2.179687-.710938.121094-.046875.246094-.09375.363281-.144531l.476563-.207031c.480469-.207031.945312-.433594 1.425781-.695313 2.089844-1.117187 3.960938-2.5625 5.542969-4.273437.015625-.015625.027343-.03125.042969-.046875.011718-.015625.027343-.027344.039062-.042969.117188-.128906.222656-.265625.335938-.398437 1.203124-1.378907 2.21875-2.917969 3.039062-4.617188.097656-.199219.207031-.394531.296875-.597656.023437-.050782.046875-.097656.066406-.148438.445313-1.027344.816407-2.125 1.109375-3.253906.007813-.035156.015625-.066406.023438-.101562.824218-3.324219 1.582031-6.699219 2.261718-10.0625.390626-1.953126.722657-3.761719 1.023438-5.523438.304688-1.6875.601562-3.515625.898438-5.542969.503906-3.335937.917968-6.761719 1.269531-10.207031.058593-.574219.132812-1.144531.1875-1.722656 0-.003906 0-.003906 0-.003906.445312-4.691407.726562-9.402344.871093-14.117188zm-97.746093-7.046875c0-22.742187 14.957031-42.058594 36.019531-48.164063.15625.988282.3125 1.976563.460938 2.964844.113281.765625.230468 1.53125.339843 2.296875.273438 1.953125.527344 3.90625.765625 5.863281.03125.277344.074219.558594.105469.835938.265625 2.222656.5 4.449219.714844 6.675781.066406.699219.121093 1.402344.1875 2.105469.136719 1.546875.269531 3.09375.382812 4.640625.0625.832031.117188 1.664063.171875 2.496094.09375 1.441406.179688 2.886719.257813 4.332031.042969.839844.085937 1.675781.121093 2.511719.066407 1.519531.117188 3.035156.164063 4.554687.019531.734375.046875 1.472656.0625 2.207032.046875 2.101562.074219 4.199218.074219 6.296874 0 .140626.007812.28125.007812.425782 0 2.242187-.03125 4.484375-.082031 6.722656-.015625.695312-.042969 1.386719-.0625 2.082031-.042969 1.558594-.097656 3.121094-.167969 4.679688-.035156.820312-.078125 1.636719-.121094 2.453125-.074218 1.464844-.164062 2.933594-.257812 4.398437-.054688.816407-.109375 1.632813-.171875 2.449219-.113281 1.550781-.246094 3.097656-.386719 4.644531-.0625.707031-.117187 1.410157-.1875 2.117188-.214844 2.234375-.449218 4.46875-.714844 6.699219v.011718c-.265624 2.238282-.5625 4.476563-.878906 6.710938-.097656.707031-.210937 1.410156-.316406 2.117187-.15625 1.078125-.328125 2.152344-.5 3.230469-2.398438-.148438-4.816406.582031-6.753906 2.089844-2.433594 1.894531-3.855469 4.804687-3.855469 7.890625v93.140625c0 1-.117187 2.007812-.355469 3.003906-.027344.09375-.050781.1875-.078125.28125-1.472656 5.535156-6.515625 9.402344-12.257812 9.402344-.363281 0-.726563-.015625-1.082031-.042969-5.375-.457031-9.910157-4.265625-11.238282-9.589844-.246094-.976562-.367187-2.003906-.367187-3.054687zm-106.011719 154.734375c-.226562-.976562-.339844-1.996094-.339844-3.035156v-85.949219c.546875.109375 1.101563.195313 1.652344.292969.527344.09375 1.050781.199218 1.578125.28125.5625.089844 1.128906.148437 1.691406.222656.613281.078125 1.222657.167969 1.839844.230469.445313.046875.890625.070312 1.332031.105469.734375.058593 1.46875.128906 2.203125.164062.214844.011719.429688.007812.644531.019531.949219.039063 1.894532.074219 2.851563.074219.953125 0 1.902344-.035156 2.847656-.074219.214844-.011719.429688-.007812.644531-.019531.738282-.035156 1.46875-.105469 2.203126-.164062.445312-.035157.890624-.058594 1.332031-.105469.617187-.0625 1.226562-.148438 1.839843-.230469.5625-.074219 1.128907-.136719 1.691407-.222656.527343-.082032 1.046875-.1875 1.570312-.28125.554688-.097656 1.109375-.183594 1.660157-.292969v85.949219c0 1.039062-.113282 2.058594-.34375 3.070312-1.402344 6.210938-7.058594 10.71875-13.445313 10.71875-6.390625 0-12.046875-4.507812-13.453125-10.753906zm-34.707031-155.753906c0-26.554688 21.601562-48.160156 48.160156-48.160156 26.554687 0 48.160156 21.601562 48.160156 48.160156 0 18.949218-11.175781 36.207031-28.464843 43.964844-6.207032 2.78125-12.832032 4.195312-19.695313 4.195312-6.867187 0-13.492187-1.414062-19.699219-4.195312-17.289062-7.757813-28.460937-25.015626-28.460937-43.964844zm17.289062 168.222656c.25-.042969.503907-.078125.757813-.105469.015625.03125.035156.058594.050781.085938.308594.609375.636719 1.203125.980469 1.785156.074218.121094.144531.242187.21875.363281.355468.585938.722656 1.164063 1.113281 1.722656.027344.042969.058594.082032.085937.125.375.535157.769532 1.054688 1.171876 1.570313.074218.09375.148437.191406.226562.285156.421875.519531.855469 1.023438 1.304688 1.515625.085937.097656.175781.191406.265624.285156.464844.5.9375.984376 1.433594 1.453126.003906.003906.007813.007812.011719.011718.496094.472656 1.011719.921875 1.539063 1.359375.101562.085938.203124.171875.304687.253907.515625.421874 1.042969.828124 1.582031 1.214843.09375.066407.1875.132813.28125.199219.523438.367188 1.058594.726562 1.605469 1.066406.050781.035156.101563.066406.152344.097656.574219.355469 1.164062.6875 1.761719 1.007813.121093.066406.242187.128906.367187.195313.597656.308593 1.199219.601562 1.816406.875.085938.039062.171875.074218.257813.113281.582031.25 1.171875.488281 1.769531.707031.09375.035156.1875.074219.28125.105469.636719.230469 1.28125.433593 1.933594.625.136719.042969.273437.078125.410156.117187.664063.183594 1.332031.355469 2.011719.5.058594.011719.121094.023438.179687.035156.644531.132813 1.296875.246094 1.953125.34375.125.019532.25.039063.378906.054688.683594.09375 1.371094.164062 2.066407.21875.140625.007812.28125.015625.421875.027344.71875.042968 1.445312.074218 2.175781.074218.734375 0 1.460937-.03125 2.183594-.074218.140625-.011719.28125-.019532.421875-.027344.695312-.054688 1.386718-.125 2.070312-.21875.128906-.019531.253906-.039062.382813-.058594.671875-.097656 1.335937-.214844 1.992187-.351562.046875-.007813.09375-.015625.140625-.027344.6875-.144531 1.363281-.316406 2.03125-.507812.132813-.035157.265625-.070313.394531-.109376.660157-.195312 1.308594-.402343 1.949219-.632812.09375-.035156.183594-.070312.277344-.105469.621094-.230469 1.238281-.476562 1.839844-.742187.058593-.023438.117187-.046875.175781-.074219.632812-.28125 1.257812-.585937 1.871094-.90625.101562-.054687.203125-.109375.308594-.164063.613281-.328124 1.21875-.671874 1.808593-1.039062.039063-.023438.078125-.050781.117188-.074219.589843-.367187 1.167969-.753906 1.734375-1.160156.046875-.03125.089844-.0625.132812-.09375.574219-.414063 1.132813-.847656 1.679688-1.300781.066406-.050782.128906-.105469.191406-.15625 1.121094-.9375 2.179688-1.945313 3.171875-3.023438.027344-.027344.054687-.054687.082031-.082031.492188-.542969.96875-1.097656 1.425782-1.671875.03125-.039062.0625-.078125.09375-.117188.921874-1.164062 1.769531-2.394531 2.535156-3.683593.023437-.035157.042968-.070313.066406-.109375.375-.640625.734375-1.292969 1.070312-1.960938.007813-.015625.015626-.03125.023438-.046875h46.273438c.011718.019531.027343.042969.039062.0625.070312.132813.152344.257813.226562.390625.332032.59375.679688 1.179688 1.046876 1.753906.152343.238282.3125.46875.472656.703126.3125.457031.628906.90625.960937 1.34375.183594.242187.367188.480468.558594.714843.34375.429688.703125.851563 1.070313 1.265625.183593.203125.359374.410156.546874.613282.492188.523437.996094 1.027343 1.515626 1.515624.074218.070313.144531.148438.222656.21875.597656.546876 1.21875 1.074219 1.855468 1.578126.199219.15625.40625.300781.605469.449218.457031.34375.917969.679688 1.390625.996094.246094.167969.496094.328125.746094.484375.457031.292969.917969.570313 1.390625.835937.253906.144532.503906.289063.761719.425782.535156.285156 1.082031.550781 1.632812.808594.199219.089843.386719.191406.585938.277343.75.328125 1.515625.632813 2.292968.90625.175782.0625.355469.109375.53125.167969.609376.203125 1.226563.394531 1.851563.5625.277344.074219.558594.136719.839844.203125.542969.132813 1.089843.25 1.644531.351563.296875.054687.59375.109374.894531.15625.578125.089843 1.15625.160156 1.742188.222656.265625.027344.535156.0625.804687.082031.851563.066406 1.707032.109375 2.570313.109375.695312 0 1.386719-.023438 2.070312-.066406.132813-.007813.257813-.027344.386719-.035156.246094-.019532.484375-.046876.726562-.070313.152344-.015625.304688-.027344.457032-.042969.15625-.019531.316406-.023437.472656-.042968.28125-.035157.554688-.089844.832031-.132813.246094-.039063.492188-.074219.734375-.117187.703125-.125 1.398438-.269532 2.085938-.4375.089844-.023438.179687-.039063.269531-.058594.773437-.199219 1.535156-.429688 2.285156-.679688.210938-.070312.417969-.148437.628907-.222656.550781-.199219 1.101562-.40625 1.640624-.632812.226563-.097657.453126-.191407.675782-.289063.59375-.265625 1.179687-.546875 1.753906-.847656.128906-.066407.257812-.125.382812-.191407.695313-.371093 1.371094-.765624 2.03125-1.1875.171876-.105468.335938-.222656.503907-.332031.496093-.328125.988281-.667969 1.464843-1.019531.199219-.148438.394532-.292969.589844-.445312.484375-.375.957032-.761719 1.421875-1.164063.132813-.117187.277344-.230469.410157-.351563.449218-.402343.886718-.824218 1.316406-1.25.078125-.082031.164062-.15625.246094-.238281.042968-.046875.082031-.09375.128906-.136719.125-.128906.242187-.265624.363281-.398437.132813-.140625.265625-.285156.398437-.429687.148438-.167969.308594-.324219.457032-.496094.125-.144532.242187-.300782.363281-.449219.164063-.195313.320313-.386719.476563-.585937.136718-.171876.28125-.335938.417968-.511719.117188-.152344.226563-.320313.339844-.476563.109375-.144531.210938-.289062.316406-.4375.117188-.167968.242188-.328125.355469-.5.046875-.066406.097656-.128906.144531-.199218 2.53125 1.519531 4.675782 3.589843 6.296875 6.105468l4.804688 7.429688c2.960937 4.589844 5.335937 9.457031 7.105469 14.550781h-206.800782c1.832032-5.144531 4.257813-10.058594 7.304688-14.683594l4.921875-7.464843c2.394531-3.632813 6.003906-6.378907 10.175781-7.734376.902344-.296874 1.878906-.53125 2.925781-.695312zm124.964844 50.578125-2.035156 7.265625c-.953125 3.402344-4.085938 5.777344-7.621094 5.777344h-75.390625c-3.671875 0-6.839844-2.492188-7.695312-6.066406l-1.675782-6.976563zm60.355469 176.707031c0 15.074219-12.265625 27.339844-27.339844 27.339844h-159.941406c-15.074219 0-27.339844-12.265625-27.339844-27.339844v-173.777344c0-.976562.023438-1.953124.066406-2.933593h39.214844l2.792969 11.648437c3.023437 12.601563 14.1875 21.398438 27.144531 21.398438h75.390625c12.46875 0 23.519531-8.382813 26.882813-20.386719l3.542968-12.660156h39.539063c.03125.835937.046875 1.671875.046875 2.511719zm11.996094-354.257812c-.609376 3.027344-1.300782 6.097656-2.046876 9.121094-.027343.105468-.054687.183593-.074218.242187-.015625.027344-.027344.046875-.042969.070313-.03125.058593-.058594.117187-.105469.167968-.085937.09375-.191406.171875-.308594.234375-.007812.003907-.027343.015625-.046874.027344l-.046876.019531c-.046874.015625-.09375.03125-.140624.042969-.035157.007813-.066407.011719-.105469.019531 0 0-.03125.003906-.101563.003906h-14.898437c.125-.804687.230469-1.605468.351562-2.410156.113281-.792968.230469-1.582031.34375-2.375.242188-1.757812.472657-3.515625.6875-5.273437.078125-.621094.160157-1.242188.234375-1.867188.277344-2.367187.535156-4.738281.761719-7.105469.035156-.398437.066406-.792968.101563-1.1875.179687-1.972656.347656-3.941406.492187-5.910156.058594-.789062.105469-1.582031.160156-2.371094.105469-1.601562.203125-3.207031.285157-4.8125.042968-.847656.085937-1.699218.125-2.550781.070312-1.621093.125-3.246093.171874-4.871093.023438-.765626.050782-1.53125.066407-2.300782.050781-2.214844.078125-4.425781.082031-6.640625 0-.152343.003906-.304687.003906-.457031 0-2.359375-.03125-4.714844-.082031-7.074219-.015625-.746093-.042969-1.488281-.066406-2.230469-.046875-1.640624-.101563-3.28125-.171875-4.921874-.035156-.855469-.078125-1.710938-.125-2.566407-.078125-1.582031-.171875-3.160156-.277344-4.742187-.054688-.820313-.105469-1.636719-.167969-2.457032-.132812-1.839843-.289062-3.675781-.453125-5.515624-.050781-.53125-.089844-1.0625-.140625-1.589844-.222656-2.355469-.472656-4.710938-.75-7.0625-.070312-.613282-.15625-1.222656-.230469-1.835938-.214843-1.757812-.441406-3.511718-.683593-5.269531-.117188-.828125-.238281-1.652344-.359375-2.480469-.121094-.820312-.230469-1.644531-.359375-2.46875h14.898437c.09375 0 .175782.007813.25.027344l.011719.003906c.035156.015625.066406.027344.101563.039063.089843.035156.179687.089843.265624.164062.039063.035157.074219.070313.109376.105469.03125.042969.066406.09375.117187.171875.03125.054687.074219.144531.101563.265625 1.085937 4.34375 2.023437 8.753906 2.816406 13.199219.285156 1.527343.558594 3.167969.871094 5.199219.15625 1.007812.308593 2.03125.449218 3.0625.1875 1.398437.367188 2.804687.527344 4.210937.164062 1.410156.3125 2.824219.445312 4.238281 1.238282 12.855469 1.246094 25.894532.03125 38.761719-.003906 0-.003906 0-.003906 0-.105468 1.140625-.238281 2.269531-.367187 3.402344-.28125 2.515625-.589844 5.015625-.957031 7.464843-.277344 1.871094-.539063 3.5-.808594 4.984376-.007813.035156-.015625.074218-.019532.109374-.265624 1.589844-.570312 3.230469-.921874 4.988282zm0 0"/><path d="m206.308594 433c5.519531 0 10-4.476562 10-10v-76.664062c0-5.523438-4.480469-10-10-10-5.523438 0-10 4.476562-10 10v76.664062c0 5.523438 4.476562 10 10 10zm0 0"/><path d="m215.539062 459.179688c-.25-.609376-.558593-1.1875-.917968-1.730469-.359375-.546875-.78125-1.058594-1.242188-1.519531-.457031-.457032-.96875-.878907-1.519531-1.238282-.539063-.359375-1.121094-.671875-1.730469-.921875-.597656-.25-1.226562-.449219-1.867187-.570312-1.292969-.257813-2.621094-.257813-3.910157 0-.632812.121093-1.261718.320312-1.871093.570312-.601563.25-1.179688.5625-1.71875.921875-.550781.359375-1.0625.78125-1.523438 1.238282-.46875.460937-.878906.972656-1.25 1.519531-.359375.542969-.667969 1.121093-.917969 1.730469-.25.601562-.441406 1.230468-.570312 1.871093s-.191406 1.300781-.191406 1.949219c0 .652344.0625 1.3125.191406 1.949219.128906.640625.320312 1.273437.570312 1.882812.25.597657.558594 1.179688.917969 1.71875.371094.550781.78125 1.058594 1.25 1.519531.460938.460938.972657.878907 1.523438 1.242188.539062.359375 1.117187.667969 1.71875.917969.609375.25 1.238281.449219 1.871093.582031.648438.128906 1.308594.1875 1.957032.1875.652344 0 1.3125-.058594 1.953125-.1875.640625-.132812 1.269531-.332031 1.867187-.582031.609375-.25 1.191406-.558594 1.730469-.917969.550781-.363281 1.0625-.78125 1.519531-1.242188.460938-.460937.882813-.96875 1.242188-1.519531.359375-.539062.667968-1.121093.917968-1.71875.25-.609375.441407-1.242187.570313-1.882812.128906-.636719.199219-1.296875.199219-1.949219 0-.648438-.070313-1.308594-.199219-1.949219s-.320313-1.269531-.570313-1.871093zm0 0"/></svg>