<?xml version="1.0" encoding="iso-8859-1"?>
<!-- Generator: Adobe Illustrator 19.0.0, SVG Export Plug-In . SVG Version: 6.00 Build 0)  -->
<svg version="1.1" id="Capa_1" xmlns="http://www.w3.org/2000/svg" xmlns:xlink="http://www.w3.org/1999/xlink" x="0px" y="0px"
	 viewBox="0 0 512 512" style="enable-background:new 0 0 512 512;" xml:space="preserve">
<path style="fill:#13C37B;" d="M376.5,361.5v-211c8.283,0,15-6.716,15-15c0-8.283-6.717-15-15-15h-241C60.785,120.5,0,181.285,0,256
	s60.785,135.5,135.5,135.5h241c8.283,0,15-6.716,15-15C391.5,368.217,384.783,361.5,376.5,361.5z"/>
<path style="fill:#61DE56;" d="M135.5,120.5h241c8.284,0,15,6.717,15,15c0,8.284-6.716,15-15,15v105.499H0
	C0,181.285,60.785,120.5,135.5,120.5z"/>
<path style="fill:#F2F2F2;" d="M512,256c0-74.715-60.785-135.5-135.5-135.5S241,181.285,241,256s60.785,135.5,135.5,135.5
	S512,330.715,512,256z"/>
<path style="fill:#D9D9D9;" d="M376.5,391.5c74.715,0,135.5-60.785,135.5-135.5H241C241,330.715,301.785,391.5,376.5,391.5z"/>
<g>
</g>
<g>
</g>
<g>
</g>
<g>
</g>
<g>
</g>
<g>
</g>
<g>
</g>
<g>
</g>
<g>
</g>
<g>
</g>
<g>
</g>
<g>
</g>
<g>
</g>
<g>
</g>
<g>
</g>
</svg>
